<svg width="525" height="309" viewBox="0 0 525 309" fill="none" xmlns="http://www.w3.org/2000/svg">
<path d="M21.0212 70V17.44H32.8292V38.392H55.0052V17.44H66.8132V70H55.0052V48.76H32.8292V70H21.0212ZM84.2951 26.656C82.1351 26.656 80.5271 26.104 79.4711 25C78.4631 23.848 77.9591 22.408 77.9591 20.68C77.9591 18.904 78.4631 17.464 79.4711 16.36C80.5271 15.208 82.1351 14.632 84.2951 14.632C86.4551 14.632 88.0391 15.208 89.0471 16.36C90.1031 17.464 90.6311 18.904 90.6311 20.68C90.6311 22.408 90.1031 23.848 89.0471 25C88.0391 26.104 86.4551 26.656 84.2951 26.656ZM79.8311 70V39.04H74.5751V30.544H91.3511V70H79.8311ZM106.11 82.312L97.254 78.856L104.814 56.824L114.606 60.424L106.11 82.312Z" fill="#FDEFEF"/>
<path d="M21.1652 160.625V108.065H32.9732V160.625H21.1652ZM70.6286 161.633C66.3566 161.633 62.9006 160.529 60.2606 158.321C57.6686 156.113 56.3726 152.993 56.3726 148.961C56.3726 146.081 57.1166 143.729 58.6046 141.905C60.0926 140.033 62.1806 138.665 64.8686 137.801C67.5566 136.889 70.6526 136.433 74.1566 136.433H81.2846V136.289C81.2846 132.257 79.2686 130.241 75.2366 130.241C74.1806 130.241 72.7886 130.289 71.0606 130.385C69.3326 130.433 67.5326 130.505 65.6606 130.601C63.8366 130.649 62.2046 130.721 60.7646 130.817V121.097C62.4446 120.953 64.5086 120.833 66.9566 120.737C69.4046 120.593 71.6606 120.521 73.7246 120.521C79.7726 120.521 84.3806 121.817 87.5486 124.409C90.7646 126.953 92.3726 130.961 92.3726 136.433V160.625H83.2286V153.209C82.3646 155.945 80.8766 158.033 78.7646 159.473C76.6526 160.913 73.9406 161.633 70.6286 161.633ZM74.0846 153.641C75.9566 153.641 77.5886 153.113 78.9806 152.057C80.3726 151.001 81.1406 148.985 81.2846 146.009V142.841H74.0846C72.0686 142.841 70.5086 143.345 69.4046 144.353C68.3486 145.361 67.8206 146.681 67.8206 148.313C67.8206 149.897 68.3486 151.193 69.4046 152.201C70.5086 153.161 72.0686 153.641 74.0846 153.641ZM102.147 160.625V121.169H111.291V131.177C112.827 123.689 117.099 119.945 124.107 119.945H124.611C130.707 119.945 134.739 122.801 136.707 128.513C138.723 122.801 142.779 119.945 148.875 119.945H149.379C153.843 119.945 157.251 121.481 159.603 124.553C161.955 127.625 163.131 132.161 163.131 138.161V160.625H151.611V137.513C151.611 135.353 151.035 133.601 149.883 132.257C148.779 130.913 147.195 130.241 145.131 130.241C143.067 130.241 141.435 130.937 140.235 132.329C139.035 133.721 138.435 135.521 138.435 137.729V160.625H126.843V137.513C126.843 135.353 126.267 133.601 125.115 132.257C124.011 130.913 122.451 130.241 120.435 130.241C118.323 130.241 116.667 130.937 115.467 132.329C114.267 133.721 113.667 135.521 113.667 137.729V160.625H102.147ZM183.749 160.625L201.101 108.065H220.181L238.181 160.625H225.941L221.693 147.593H199.733L195.557 160.625H183.749ZM202.829 137.801H218.453L211.901 117.713H209.237L202.829 137.801ZM268.653 161.921C265.005 161.921 261.861 161.057 259.221 159.329C256.581 157.601 254.685 155.105 253.533 151.841V160.625H244.389V108.065H255.909V127.433C257.301 124.985 259.149 123.137 261.453 121.889C263.757 120.641 266.373 120.017 269.301 120.017C272.901 120.017 276.021 120.905 278.661 122.681C281.301 124.409 283.341 126.785 284.781 129.809C286.269 132.785 287.013 136.193 287.013 140.033V141.617C287.013 145.457 286.269 148.913 284.781 151.985C283.293 155.009 281.181 157.433 278.445 159.257C275.709 161.033 272.445 161.921 268.653 161.921ZM265.629 152.273C268.557 152.273 270.909 151.217 272.685 149.105C274.509 146.945 275.421 144.185 275.421 140.825C275.421 137.465 274.509 134.753 272.685 132.689C270.909 130.625 268.557 129.593 265.629 129.593C263.853 129.593 262.197 130.001 260.661 130.817C259.173 131.633 257.949 132.809 256.989 134.345C256.077 135.881 255.621 137.705 255.621 139.817V142.481C255.621 144.545 256.101 146.321 257.061 147.809C258.069 149.249 259.341 150.353 260.877 151.121C262.413 151.889 263.997 152.273 265.629 152.273ZM295.014 160.625V108.065H306.534V127.649C308.646 122.513 312.534 119.945 318.198 119.945H318.702C323.07 119.945 326.406 121.505 328.71 124.625C331.014 127.697 332.166 132.209 332.166 138.161V160.625H320.646V137.441C320.646 135.281 319.998 133.553 318.702 132.257C317.454 130.913 315.798 130.241 313.734 130.241C311.574 130.241 309.822 130.961 308.478 132.401C307.182 133.793 306.534 135.617 306.534 137.873V160.625H295.014ZM348.319 117.281C346.159 117.281 344.551 116.729 343.495 115.625C342.487 114.473 341.983 113.033 341.983 111.305C341.983 109.529 342.487 108.089 343.495 106.985C344.551 105.833 346.159 105.257 348.319 105.257C350.479 105.257 352.063 105.833 353.071 106.985C354.127 108.089 354.655 109.529 354.655 111.305C354.655 113.033 354.127 114.473 353.071 115.625C352.063 116.729 350.479 117.281 348.319 117.281ZM343.855 160.625V129.665H338.599V121.169H355.375V160.625H343.855ZM366.029 160.625V121.169H375.173V131.249C376.757 123.713 381.197 119.945 388.493 119.945H388.997C393.557 119.945 397.061 121.457 399.509 124.481C401.957 127.457 403.181 131.993 403.181 138.089V160.625H391.661V137.441C391.661 135.329 391.037 133.601 389.789 132.257C388.541 130.913 386.861 130.241 384.749 130.241C382.589 130.241 380.837 130.937 379.493 132.329C378.197 133.673 377.549 135.449 377.549 137.657V160.625H366.029ZM424.23 161.633C419.958 161.633 416.502 160.529 413.862 158.321C411.27 156.113 409.974 152.993 409.974 148.961C409.974 146.081 410.718 143.729 412.206 141.905C413.694 140.033 415.782 138.665 418.47 137.801C421.158 136.889 424.254 136.433 427.758 136.433H434.886V136.289C434.886 132.257 432.87 130.241 428.838 130.241C427.782 130.241 426.39 130.289 424.662 130.385C422.934 130.433 421.134 130.505 419.262 130.601C417.438 130.649 415.806 130.721 414.366 130.817V121.097C416.046 120.953 418.11 120.833 420.558 120.737C423.006 120.593 425.262 120.521 427.326 120.521C433.374 120.521 437.982 121.817 441.15 124.409C444.366 126.953 445.974 130.961 445.974 136.433V160.625H436.83V153.209C435.966 155.945 434.478 158.033 432.366 159.473C430.254 160.913 427.542 161.633 424.23 161.633ZM427.686 153.641C429.558 153.641 431.19 153.113 432.582 152.057C433.974 151.001 434.742 148.985 434.886 146.009V142.841H427.686C425.67 142.841 424.11 143.345 423.006 144.353C421.95 145.361 421.422 146.681 421.422 148.313C421.422 149.897 421.95 151.193 423.006 152.201C424.11 153.161 425.67 153.641 427.686 153.641ZM462.747 160.625L450.939 121.169H462.819L471.243 151.049H472.899L480.171 121.169H491.259L481.035 160.625H462.747ZM493.675 160.625V147.737H506.347V160.625H493.675Z" fill="#FDEFEF"/>
<path d="M18.8179 236.996V210.716H24.7219V236.996H18.8179ZM43.5496 237.5C41.4136 237.5 39.6856 236.948 38.3656 235.844C37.0696 234.74 36.4216 233.18 36.4216 231.164C36.4216 229.724 36.7936 228.548 37.5376 227.636C38.2816 226.7 39.3256 226.016 40.6696 225.584C42.0136 225.128 43.5616 224.9 45.3136 224.9H48.8776V224.828C48.8776 222.812 47.8696 221.804 45.8536 221.804C45.3256 221.804 44.6296 221.828 43.7656 221.876C42.9016 221.9 42.0016 221.936 41.0656 221.984C40.1536 222.008 39.3376 222.044 38.6176 222.092V217.232C39.4576 217.16 40.4896 217.1 41.7136 217.052C42.9376 216.98 44.0656 216.944 45.0976 216.944C48.1216 216.944 50.4256 217.592 52.0096 218.888C53.6176 220.16 54.4216 222.164 54.4216 224.9V236.996H49.8496V233.288C49.4176 234.656 48.6736 235.7 47.6176 236.42C46.5616 237.14 45.2056 237.5 43.5496 237.5ZM45.2776 233.504C46.2136 233.504 47.0296 233.24 47.7256 232.712C48.4216 232.184 48.8056 231.176 48.8776 229.688V228.104H45.2776C44.2696 228.104 43.4896 228.356 42.9376 228.86C42.4096 229.364 42.1456 230.024 42.1456 230.84C42.1456 231.632 42.4096 232.28 42.9376 232.784C43.4896 233.264 44.2696 233.504 45.2776 233.504ZM59.3086 236.996V217.268H63.8806V222.272C64.6486 218.528 66.7846 216.656 70.2886 216.656H70.5406C73.5886 216.656 75.6046 218.084 76.5886 220.94C77.5966 218.084 79.6246 216.656 82.6726 216.656H82.9246C85.1566 216.656 86.8606 217.424 88.0366 218.96C89.2126 220.496 89.8006 222.764 89.8006 225.764V236.996H84.0406V225.44C84.0406 224.36 83.7526 223.484 83.1766 222.812C82.6246 222.14 81.8326 221.804 80.8006 221.804C79.7686 221.804 78.9526 222.152 78.3526 222.848C77.7526 223.544 77.4526 224.444 77.4526 225.548V236.996H71.6566V225.44C71.6566 224.36 71.3686 223.484 70.7926 222.812C70.2406 222.14 69.4606 221.804 68.4526 221.804C67.3966 221.804 66.5686 222.152 65.9686 222.848C65.3686 223.544 65.0686 224.444 65.0686 225.548V236.996H59.3086ZM102.594 236.996V210.716H118.362V215.612H108.498V221.516H117.93V226.412H108.498V236.996H102.594ZM128.793 237.608C126.513 237.608 124.761 236.876 123.537 235.412C122.313 233.948 121.701 231.716 121.701 228.716V217.268H127.461V229.004C127.461 230.06 127.761 230.9 128.361 231.524C128.961 232.148 129.765 232.46 130.773 232.46C131.805 232.46 132.645 232.136 133.293 231.488C133.941 230.84 134.265 229.964 134.265 228.86V217.268H140.025V236.996H135.453V232.388C134.637 235.868 132.501 237.608 129.045 237.608H128.793ZM145.588 236.996V214.964H143.248V210.716H151.384V236.996H145.588ZM156.943 236.996V214.964H154.603V210.716H162.739V236.996H156.943ZM185.073 237.68C182.697 237.68 180.681 237.308 179.025 236.564C177.393 235.82 176.157 234.788 175.317 233.468C174.501 232.148 174.093 230.636 174.093 228.932H179.817C179.817 229.94 180.225 230.828 181.041 231.596C181.881 232.34 183.225 232.712 185.073 232.712C186.705 232.712 187.953 232.4 188.817 231.776C189.681 231.128 190.113 230.3 190.113 229.292C190.113 228.452 189.753 227.792 189.033 227.312C188.313 226.808 187.149 226.484 185.541 226.34L183.561 226.16C180.945 225.944 178.857 225.14 177.297 223.748C175.737 222.332 174.957 220.448 174.957 218.096C174.957 216.416 175.353 214.964 176.145 213.74C176.961 212.516 178.089 211.58 179.529 210.932C180.969 210.26 182.673 209.924 184.641 209.924C186.705 209.924 188.469 210.284 189.933 211.004C191.421 211.724 192.561 212.732 193.353 214.028C194.145 215.3 194.541 216.788 194.541 218.492H188.781C188.781 217.532 188.433 216.692 187.737 215.972C187.041 215.252 186.009 214.892 184.641 214.892C183.321 214.892 182.337 215.216 181.689 215.864C181.041 216.488 180.717 217.232 180.717 218.096C180.717 218.84 180.969 219.488 181.473 220.04C182.001 220.592 182.877 220.916 184.101 221.012L186.117 221.192C188.037 221.36 189.729 221.78 191.193 222.452C192.657 223.1 193.797 224 194.613 225.152C195.453 226.28 195.873 227.66 195.873 229.292C195.873 230.972 195.429 232.448 194.541 233.72C193.677 234.968 192.441 235.94 190.833 236.636C189.225 237.332 187.305 237.68 185.073 237.68ZM208.581 237.248C206.589 237.248 204.981 237.008 203.757 236.528C202.533 236.024 201.633 235.196 201.057 234.044C200.505 232.868 200.229 231.284 200.229 229.292V221.48H197.241V217.268H200.229V211.94H205.593V217.268H211.353V221.48H205.593V229.508C205.593 230.444 205.833 231.164 206.313 231.668C206.817 232.148 207.525 232.388 208.437 232.388H211.353V237.248H208.581ZM220.772 237.5C218.636 237.5 216.908 236.948 215.588 235.844C214.292 234.74 213.644 233.18 213.644 231.164C213.644 229.724 214.016 228.548 214.76 227.636C215.504 226.7 216.548 226.016 217.892 225.584C219.236 225.128 220.784 224.9 222.536 224.9H226.1V224.828C226.1 222.812 225.092 221.804 223.076 221.804C222.548 221.804 221.852 221.828 220.988 221.876C220.124 221.9 219.224 221.936 218.288 221.984C217.376 222.008 216.56 222.044 215.84 222.092V217.232C216.68 217.16 217.712 217.1 218.936 217.052C220.16 216.98 221.288 216.944 222.32 216.944C225.344 216.944 227.648 217.592 229.232 218.888C230.84 220.16 231.644 222.164 231.644 224.9V236.996H227.072V233.288C226.64 234.656 225.896 235.7 224.84 236.42C223.784 237.14 222.428 237.5 220.772 237.5ZM222.5 233.504C223.436 233.504 224.252 233.24 224.948 232.712C225.644 232.184 226.028 231.176 226.1 229.688V228.104H222.5C221.492 228.104 220.712 228.356 220.16 228.86C219.632 229.364 219.368 230.024 219.368 230.84C219.368 231.632 219.632 232.28 220.16 232.784C220.712 233.264 221.492 233.504 222.5 233.504ZM245.387 237.68C243.683 237.68 242.195 237.404 240.923 236.852C239.675 236.276 238.631 235.508 237.791 234.548C236.951 233.588 236.327 232.508 235.919 231.308C235.511 230.084 235.307 228.824 235.307 227.528V226.844C235.307 225.044 235.679 223.364 236.423 221.804C237.191 220.244 238.319 218.984 239.807 218.024C241.319 217.064 243.167 216.584 245.351 216.584C247.127 216.584 248.699 216.932 250.067 217.628C251.435 218.3 252.527 219.248 253.343 220.472C254.159 221.696 254.615 223.1 254.711 224.684H249.059C248.963 223.796 248.603 223.052 247.979 222.452C247.355 221.828 246.479 221.516 245.351 221.516C243.887 221.516 242.807 222.044 242.111 223.1C241.415 224.132 241.067 225.5 241.067 227.204C241.067 228.812 241.391 230.144 242.039 231.2C242.711 232.232 243.827 232.748 245.387 232.748C246.539 232.748 247.439 232.448 248.087 231.848C248.735 231.248 249.119 230.456 249.239 229.472H254.855C254.759 231.104 254.291 232.544 253.451 233.792C252.635 235.016 251.519 235.976 250.103 236.672C248.711 237.344 247.139 237.68 245.387 237.68ZM258.539 236.996V210.716H264.299V226.628L271.463 217.268H277.511L271.031 225.692L278.915 236.996H272.435L266.207 227.78H264.299V236.996H258.539ZM289.414 237.14V210.5H299.17C301.546 210.5 303.622 210.848 305.398 211.544C307.174 212.24 308.65 213.188 309.826 214.388C311.026 215.588 311.926 216.968 312.526 218.528C313.126 220.064 313.426 221.684 313.426 223.388V224.18C313.426 225.788 313.126 227.36 312.526 228.896C311.926 230.432 311.026 231.824 309.826 233.072C308.65 234.32 307.174 235.316 305.398 236.06C303.622 236.78 301.546 237.14 299.17 237.14H289.414ZM299.494 216.008H295.318V231.632H299.494C301.966 231.632 303.91 230.912 305.326 229.472C306.742 228.032 307.45 226.136 307.45 223.784C307.45 221.312 306.742 219.404 305.326 218.06C303.91 216.692 301.966 216.008 299.494 216.008ZM326.251 237.68C324.571 237.68 323.083 237.392 321.787 236.816C320.515 236.24 319.447 235.472 318.583 234.512C317.719 233.528 317.071 232.436 316.639 231.236C316.207 230.012 315.991 228.764 315.991 227.492V226.772C315.991 225.476 316.207 224.216 316.639 222.992C317.071 221.768 317.719 220.676 318.583 219.716C319.447 218.756 320.491 218 321.715 217.448C322.963 216.872 324.403 216.584 326.035 216.584C328.147 216.584 329.923 217.064 331.363 218.024C332.827 218.96 333.943 220.196 334.711 221.732C335.479 223.268 335.863 224.924 335.863 226.7V228.644H321.427C321.619 229.988 322.099 231.056 322.867 231.848C323.659 232.616 324.787 233 326.251 233C327.283 233 328.135 232.808 328.807 232.424C329.503 232.016 329.971 231.5 330.211 230.876H335.503C335.071 232.892 334.027 234.536 332.371 235.808C330.739 237.056 328.699 237.68 326.251 237.68ZM326.035 221.264C324.787 221.264 323.767 221.624 322.975 222.344C322.207 223.04 321.715 224.048 321.499 225.368H330.355C330.163 224.048 329.695 223.04 328.951 222.344C328.231 221.624 327.259 221.264 326.035 221.264ZM343.32 236.996L337.416 217.268H343.356L347.568 232.208H348.396L352.032 217.268H357.576L352.464 236.996H343.32ZM369.563 237.68C367.883 237.68 366.395 237.392 365.099 236.816C363.827 236.24 362.759 235.472 361.895 234.512C361.031 233.528 360.383 232.436 359.951 231.236C359.519 230.012 359.303 228.764 359.303 227.492V226.772C359.303 225.476 359.519 224.216 359.951 222.992C360.383 221.768 361.031 220.676 361.895 219.716C362.759 218.756 363.803 218 365.027 217.448C366.275 216.872 367.715 216.584 369.347 216.584C371.459 216.584 373.235 217.064 374.675 218.024C376.139 218.96 377.255 220.196 378.023 221.732C378.791 223.268 379.175 224.924 379.175 226.7V228.644H364.739C364.931 229.988 365.411 231.056 366.179 231.848C366.971 232.616 368.099 233 369.563 233C370.595 233 371.447 232.808 372.119 232.424C372.815 232.016 373.283 231.5 373.523 230.876H378.815C378.383 232.892 377.339 234.536 375.683 235.808C374.051 237.056 372.011 237.68 369.563 237.68ZM369.347 221.264C368.099 221.264 367.079 221.624 366.287 222.344C365.519 223.04 365.027 224.048 364.811 225.368H373.667C373.475 224.048 373.007 223.04 372.263 222.344C371.543 221.624 370.571 221.264 369.347 221.264ZM383.244 236.996V214.964H380.904V210.716H389.04V236.996H383.244ZM403.96 237.68C401.656 237.68 399.688 237.212 398.056 236.276C396.448 235.34 395.224 234.116 394.384 232.604C393.544 231.068 393.124 229.4 393.124 227.6V226.772C393.124 224.924 393.556 223.232 394.42 221.696C395.308 220.136 396.556 218.9 398.164 217.988C399.796 217.052 401.728 216.584 403.96 216.584C406.192 216.584 408.124 217.052 409.756 217.988C411.388 218.9 412.636 220.136 413.5 221.696C414.388 223.232 414.832 224.924 414.832 226.772V227.6C414.832 229.4 414.4 231.068 413.536 232.604C412.696 234.116 411.472 235.34 409.864 236.276C408.256 237.212 406.288 237.68 403.96 237.68ZM403.96 232.82C405.616 232.82 406.876 232.292 407.74 231.236C408.628 230.156 409.072 228.812 409.072 227.204C409.072 225.548 408.616 224.18 407.704 223.1C406.816 221.996 405.568 221.444 403.96 221.444C402.352 221.444 401.104 221.996 400.216 223.1C399.328 224.18 398.884 225.548 398.884 227.204C398.884 228.812 399.316 230.156 400.18 231.236C401.044 232.292 402.304 232.82 403.96 232.82ZM418.852 244.196V217.268H423.424V222.272C424 220.448 424.96 219.068 426.304 218.132C427.672 217.172 429.268 216.692 431.092 216.692C432.916 216.692 434.5 217.136 435.844 218.024C437.212 218.888 438.268 220.076 439.012 221.588C439.78 223.1 440.164 224.804 440.164 226.7V227.528C440.164 229.424 439.804 231.14 439.084 232.676C438.364 234.212 437.332 235.424 435.988 236.312C434.644 237.2 433.012 237.644 431.092 237.644C429.748 237.644 428.512 237.392 427.384 236.888C426.256 236.384 425.332 235.616 424.612 234.584V244.196H418.852ZM429.472 232.82C430.936 232.82 432.112 232.292 433 231.236C433.912 230.18 434.368 228.8 434.368 227.096C434.368 225.416 433.912 224.06 433 223.028C432.112 221.996 430.936 221.48 429.472 221.48C428.584 221.48 427.756 221.684 426.988 222.092C426.244 222.5 425.632 223.088 425.152 223.856C424.696 224.624 424.468 225.536 424.468 226.592V227.924C424.468 228.956 424.708 229.844 425.188 230.588C425.692 231.308 426.328 231.86 427.096 232.244C427.864 232.628 428.656 232.82 429.472 232.82ZM453.2 237.68C451.52 237.68 450.032 237.392 448.736 236.816C447.464 236.24 446.396 235.472 445.532 234.512C444.668 233.528 444.02 232.436 443.588 231.236C443.156 230.012 442.94 228.764 442.94 227.492V226.772C442.94 225.476 443.156 224.216 443.588 222.992C444.02 221.768 444.668 220.676 445.532 219.716C446.396 218.756 447.44 218 448.664 217.448C449.912 216.872 451.352 216.584 452.984 216.584C455.096 216.584 456.872 217.064 458.312 218.024C459.776 218.96 460.892 220.196 461.66 221.732C462.428 223.268 462.812 224.924 462.812 226.7V228.644H448.376C448.568 229.988 449.048 231.056 449.816 231.848C450.608 232.616 451.736 233 453.2 233C454.232 233 455.084 232.808 455.756 232.424C456.452 232.016 456.92 231.5 457.16 230.876H462.452C462.02 232.892 460.976 234.536 459.32 235.808C457.688 237.056 455.648 237.68 453.2 237.68ZM452.984 221.264C451.736 221.264 450.716 221.624 449.924 222.344C449.156 223.04 448.664 224.048 448.448 225.368H457.304C457.112 224.048 456.644 223.04 455.9 222.344C455.18 221.624 454.208 221.264 452.984 221.264ZM466.629 236.996V217.268H471.201V223.964C471.417 221.732 472.101 220.016 473.253 218.816C474.429 217.616 476.025 217.016 478.041 217.016H478.797V221.984H477.357C475.749 221.984 474.513 222.416 473.649 223.28C472.809 224.144 472.389 225.368 472.389 226.952V236.996H466.629Z" fill="#FDEFEF"/>
<path d="M24.0379 295.37C21.9019 295.37 20.1739 294.818 18.8539 293.714C17.5579 292.61 16.9099 291.05 16.9099 289.034C16.9099 287.594 17.2819 286.418 18.0259 285.506C18.7699 284.57 19.8139 283.886 21.1579 283.454C22.5019 282.998 24.0499 282.77 25.8019 282.77H29.3659V282.698C29.3659 280.682 28.3579 279.674 26.3419 279.674C25.8139 279.674 25.1179 279.698 24.2539 279.746C23.3899 279.77 22.4899 279.806 21.5539 279.854C20.6419 279.878 19.8259 279.914 19.1059 279.962V275.102C19.9459 275.03 20.9779 274.97 22.2019 274.922C23.4259 274.85 24.5539 274.814 25.5859 274.814C28.6099 274.814 30.9139 275.462 32.4979 276.758C34.1059 278.03 34.9099 280.034 34.9099 282.77V294.866H30.3379V291.158C29.9059 292.526 29.1619 293.57 28.1059 294.29C27.0499 295.01 25.6939 295.37 24.0379 295.37ZM25.7659 291.374C26.7019 291.374 27.5179 291.11 28.2139 290.582C28.9099 290.054 29.2939 289.046 29.3659 287.558V285.974H25.7659C24.7579 285.974 23.9779 286.226 23.4259 286.73C22.8979 287.234 22.6339 287.894 22.6339 288.71C22.6339 289.502 22.8979 290.15 23.4259 290.654C23.9779 291.134 24.7579 291.374 25.7659 291.374ZM39.7969 294.866V275.138H44.3689V280.178C45.1609 276.41 47.3809 274.526 51.0289 274.526H51.2809C53.5609 274.526 55.3129 275.282 56.5369 276.794C57.7609 278.282 58.3729 280.55 58.3729 283.598V294.866H52.6129V283.274C52.6129 282.218 52.3009 281.354 51.6769 280.682C51.0529 280.01 50.2129 279.674 49.1569 279.674C48.0769 279.674 47.2009 280.022 46.5289 280.718C45.8809 281.39 45.5569 282.278 45.5569 283.382V294.866H39.7969ZM71.4173 295.514C69.5693 295.514 67.9373 295.082 66.5213 294.218C65.1293 293.33 64.0373 292.13 63.2453 290.618C62.4533 289.106 62.0573 287.402 62.0573 285.506V284.678C62.0573 282.782 62.4293 281.066 63.1733 279.53C63.9173 277.994 64.9733 276.782 66.3413 275.894C67.7333 275.006 69.3533 274.562 71.2013 274.562C74.0813 274.562 76.2053 275.654 77.5733 277.838V268.586H83.3693V294.866H78.7973V290.726C78.1493 292.286 77.1893 293.474 75.9173 294.29C74.6453 295.106 73.1453 295.514 71.4173 295.514ZM72.8573 290.69C74.1773 290.69 75.3173 290.246 76.2773 289.358C77.2373 288.47 77.7173 287.21 77.7173 285.578V284.246C77.7173 283.214 77.4893 282.338 77.0333 281.618C76.5773 280.874 75.9773 280.31 75.2333 279.926C74.4893 279.542 73.6853 279.35 72.8213 279.35C71.3573 279.35 70.1573 279.878 69.2213 280.934C68.2853 281.99 67.8173 283.37 67.8173 285.074C67.8173 286.802 68.2853 288.17 69.2213 289.178C70.1813 290.186 71.3933 290.69 72.8573 290.69ZM96.4764 294.866V268.586H104.612L110.624 283.346H111.308L117.248 268.586H125.528V294.866H119.696V274.598L113.576 289.538H107.96L101.876 274.742V294.866H96.4764ZM140.71 295.55C138.406 295.55 136.438 295.082 134.806 294.146C133.198 293.21 131.974 291.986 131.134 290.474C130.294 288.938 129.874 287.27 129.874 285.47V284.642C129.874 282.794 130.306 281.102 131.17 279.566C132.058 278.006 133.306 276.77 134.914 275.858C136.546 274.922 138.478 274.454 140.71 274.454C142.942 274.454 144.874 274.922 146.506 275.858C148.138 276.77 149.386 278.006 150.25 279.566C151.138 281.102 151.582 282.794 151.582 284.642V285.47C151.582 287.27 151.15 288.938 150.286 290.474C149.446 291.986 148.222 293.21 146.614 294.146C145.006 295.082 143.038 295.55 140.71 295.55ZM140.71 290.69C142.366 290.69 143.626 290.162 144.49 289.106C145.378 288.026 145.822 286.682 145.822 285.074C145.822 283.418 145.366 282.05 144.454 280.97C143.566 279.866 142.318 279.314 140.71 279.314C139.102 279.314 137.854 279.866 136.966 280.97C136.078 282.05 135.634 283.418 135.634 285.074C135.634 286.682 136.066 288.026 136.93 289.106C137.794 290.162 139.054 290.69 140.71 290.69ZM167.734 295.514C165.91 295.514 164.338 295.082 163.018 294.218C161.698 293.354 160.75 292.106 160.174 290.474V294.866H155.602V268.586H161.362V278.27C162.058 277.046 162.982 276.122 164.134 275.498C165.286 274.874 166.594 274.562 168.058 274.562C169.858 274.562 171.418 275.006 172.738 275.894C174.058 276.758 175.078 277.946 175.798 279.458C176.542 280.946 176.914 282.65 176.914 284.57V285.362C176.914 287.282 176.542 289.01 175.798 290.546C175.054 292.058 173.998 293.27 172.63 294.182C171.262 295.07 169.63 295.514 167.734 295.514ZM166.222 290.69C167.686 290.69 168.862 290.162 169.75 289.106C170.662 288.026 171.118 286.646 171.118 284.966C171.118 283.286 170.662 281.93 169.75 280.898C168.862 279.866 167.686 279.35 166.222 279.35C165.334 279.35 164.506 279.554 163.738 279.962C162.994 280.37 162.382 280.958 161.902 281.726C161.446 282.494 161.218 283.406 161.218 284.462V285.794C161.218 286.826 161.458 287.714 161.938 288.458C162.442 289.178 163.078 289.73 163.846 290.114C164.614 290.498 165.406 290.69 166.222 290.69ZM184.082 273.194C183.002 273.194 182.198 272.918 181.67 272.366C181.166 271.79 180.914 271.07 180.914 270.206C180.914 269.318 181.166 268.598 181.67 268.046C182.198 267.47 183.002 267.182 184.082 267.182C185.162 267.182 185.954 267.47 186.458 268.046C186.986 268.598 187.25 269.318 187.25 270.206C187.25 271.07 186.986 271.79 186.458 272.366C185.954 272.918 185.162 273.194 184.082 273.194ZM181.85 294.866V279.386H179.222V275.138H187.61V294.866H181.85ZM193.19 294.866V272.834H190.85V268.586H198.986V294.866H193.19ZM213.329 295.55C211.649 295.55 210.161 295.262 208.865 294.686C207.593 294.11 206.525 293.342 205.661 292.382C204.797 291.398 204.149 290.306 203.717 289.106C203.285 287.882 203.069 286.634 203.069 285.362V284.642C203.069 283.346 203.285 282.086 203.717 280.862C204.149 279.638 204.797 278.546 205.661 277.586C206.525 276.626 207.569 275.87 208.793 275.318C210.041 274.742 211.481 274.454 213.113 274.454C215.225 274.454 217.001 274.934 218.441 275.894C219.905 276.83 221.021 278.066 221.789 279.602C222.557 281.138 222.941 282.794 222.941 284.57V286.514H208.505C208.697 287.858 209.177 288.926 209.945 289.718C210.737 290.486 211.865 290.87 213.329 290.87C214.361 290.87 215.213 290.678 215.885 290.294C216.581 289.886 217.049 289.37 217.289 288.746H222.581C222.149 290.762 221.105 292.406 219.449 293.678C217.817 294.926 215.777 295.55 213.329 295.55ZM213.113 279.134C211.865 279.134 210.845 279.494 210.053 280.214C209.285 280.91 208.793 281.918 208.577 283.238H217.433C217.241 281.918 216.773 280.91 216.029 280.214C215.309 279.494 214.337 279.134 213.113 279.134ZM234.64 295.01V268.37H244.396C246.772 268.37 248.848 268.718 250.624 269.414C252.4 270.11 253.876 271.058 255.052 272.258C256.252 273.458 257.152 274.838 257.752 276.398C258.352 277.934 258.652 279.554 258.652 281.258V282.05C258.652 283.658 258.352 285.23 257.752 286.766C257.152 288.302 256.252 289.694 255.052 290.942C253.876 292.19 252.4 293.186 250.624 293.93C248.848 294.65 246.772 295.01 244.396 295.01H234.64ZM244.72 273.878H240.544V289.502H244.72C247.192 289.502 249.136 288.782 250.552 287.342C251.968 285.902 252.676 284.006 252.676 281.654C252.676 279.182 251.968 277.274 250.552 275.93C249.136 274.562 247.192 273.878 244.72 273.878ZM271.477 295.55C269.797 295.55 268.309 295.262 267.013 294.686C265.741 294.11 264.673 293.342 263.809 292.382C262.945 291.398 262.297 290.306 261.865 289.106C261.433 287.882 261.217 286.634 261.217 285.362V284.642C261.217 283.346 261.433 282.086 261.865 280.862C262.297 279.638 262.945 278.546 263.809 277.586C264.673 276.626 265.717 275.87 266.941 275.318C268.189 274.742 269.629 274.454 271.261 274.454C273.373 274.454 275.149 274.934 276.589 275.894C278.053 276.83 279.169 278.066 279.937 279.602C280.705 281.138 281.089 282.794 281.089 284.57V286.514H266.653C266.845 287.858 267.325 288.926 268.093 289.718C268.885 290.486 270.013 290.87 271.477 290.87C272.509 290.87 273.361 290.678 274.033 290.294C274.729 289.886 275.197 289.37 275.437 288.746H280.729C280.297 290.762 279.253 292.406 277.597 293.678C275.965 294.926 273.925 295.55 271.477 295.55ZM271.261 279.134C270.013 279.134 268.993 279.494 268.201 280.214C267.433 280.91 266.941 281.918 266.725 283.238H275.581C275.389 281.918 274.921 280.91 274.177 280.214C273.457 279.494 272.485 279.134 271.261 279.134ZM288.546 294.866L282.642 275.138H288.582L292.794 290.078H293.622L297.258 275.138H302.802L297.69 294.866H288.546ZM314.79 295.55C313.11 295.55 311.622 295.262 310.326 294.686C309.054 294.11 307.986 293.342 307.122 292.382C306.258 291.398 305.61 290.306 305.178 289.106C304.746 287.882 304.53 286.634 304.53 285.362V284.642C304.53 283.346 304.746 282.086 305.178 280.862C305.61 279.638 306.258 278.546 307.122 277.586C307.986 276.626 309.03 275.87 310.254 275.318C311.502 274.742 312.942 274.454 314.574 274.454C316.686 274.454 318.462 274.934 319.902 275.894C321.366 276.83 322.482 278.066 323.25 279.602C324.018 281.138 324.402 282.794 324.402 284.57V286.514H309.966C310.158 287.858 310.638 288.926 311.406 289.718C312.198 290.486 313.326 290.87 314.79 290.87C315.822 290.87 316.674 290.678 317.346 290.294C318.042 289.886 318.51 289.37 318.75 288.746H324.042C323.61 290.762 322.566 292.406 320.91 293.678C319.278 294.926 317.238 295.55 314.79 295.55ZM314.574 279.134C313.326 279.134 312.306 279.494 311.514 280.214C310.746 280.91 310.254 281.918 310.038 283.238H318.894C318.702 281.918 318.234 280.91 317.49 280.214C316.77 279.494 315.798 279.134 314.574 279.134ZM328.471 294.866V272.834H326.131V268.586H334.267V294.866H328.471ZM349.186 295.55C346.882 295.55 344.914 295.082 343.282 294.146C341.674 293.21 340.45 291.986 339.61 290.474C338.77 288.938 338.35 287.27 338.35 285.47V284.642C338.35 282.794 338.782 281.102 339.646 279.566C340.534 278.006 341.782 276.77 343.39 275.858C345.022 274.922 346.954 274.454 349.186 274.454C351.418 274.454 353.35 274.922 354.982 275.858C356.614 276.77 357.862 278.006 358.726 279.566C359.614 281.102 360.058 282.794 360.058 284.642V285.47C360.058 287.27 359.626 288.938 358.762 290.474C357.922 291.986 356.698 293.21 355.09 294.146C353.482 295.082 351.514 295.55 349.186 295.55ZM349.186 290.69C350.842 290.69 352.102 290.162 352.966 289.106C353.854 288.026 354.298 286.682 354.298 285.074C354.298 283.418 353.842 282.05 352.93 280.97C352.042 279.866 350.794 279.314 349.186 279.314C347.578 279.314 346.33 279.866 345.442 280.97C344.554 282.05 344.11 283.418 344.11 285.074C344.11 286.682 344.542 288.026 345.406 289.106C346.27 290.162 347.53 290.69 349.186 290.69ZM364.078 302.066V275.138H368.65V280.142C369.226 278.318 370.186 276.938 371.53 276.002C372.898 275.042 374.494 274.562 376.318 274.562C378.142 274.562 379.726 275.006 381.07 275.894C382.438 276.758 383.494 277.946 384.238 279.458C385.006 280.97 385.39 282.674 385.39 284.57V285.398C385.39 287.294 385.03 289.01 384.31 290.546C383.59 292.082 382.558 293.294 381.214 294.182C379.87 295.07 378.238 295.514 376.318 295.514C374.974 295.514 373.738 295.262 372.61 294.758C371.482 294.254 370.558 293.486 369.838 292.454V302.066H364.078ZM374.698 290.69C376.162 290.69 377.338 290.162 378.226 289.106C379.138 288.05 379.594 286.67 379.594 284.966C379.594 283.286 379.138 281.93 378.226 280.898C377.338 279.866 376.162 279.35 374.698 279.35C373.81 279.35 372.982 279.554 372.214 279.962C371.47 280.37 370.858 280.958 370.378 281.726C369.922 282.494 369.694 283.406 369.694 284.462V285.794C369.694 286.826 369.934 287.714 370.414 288.458C370.918 289.178 371.554 289.73 372.322 290.114C373.09 290.498 373.882 290.69 374.698 290.69ZM398.427 295.55C396.747 295.55 395.259 295.262 393.963 294.686C392.691 294.11 391.623 293.342 390.759 292.382C389.895 291.398 389.247 290.306 388.815 289.106C388.383 287.882 388.167 286.634 388.167 285.362V284.642C388.167 283.346 388.383 282.086 388.815 280.862C389.247 279.638 389.895 278.546 390.759 277.586C391.623 276.626 392.667 275.87 393.891 275.318C395.139 274.742 396.579 274.454 398.211 274.454C400.323 274.454 402.099 274.934 403.539 275.894C405.003 276.83 406.119 278.066 406.887 279.602C407.655 281.138 408.039 282.794 408.039 284.57V286.514H393.603C393.795 287.858 394.275 288.926 395.043 289.718C395.835 290.486 396.963 290.87 398.427 290.87C399.459 290.87 400.311 290.678 400.983 290.294C401.679 289.886 402.147 289.37 402.387 288.746H407.679C407.247 290.762 406.203 292.406 404.547 293.678C402.915 294.926 400.875 295.55 398.427 295.55ZM398.211 279.134C396.963 279.134 395.943 279.494 395.151 280.214C394.383 280.91 393.891 281.918 393.675 283.238H402.531C402.339 281.918 401.871 280.91 401.127 280.214C400.407 279.494 399.435 279.134 398.211 279.134ZM411.855 294.866V275.138H416.427V281.834C416.643 279.602 417.327 277.886 418.479 276.686C419.655 275.486 421.251 274.886 423.267 274.886H424.023V279.854H422.583C420.975 279.854 419.739 280.286 418.875 281.15C418.035 282.014 417.615 283.238 417.615 284.822V294.866H411.855ZM423.998 294.866V288.422H430.334V294.866H423.998Z" fill="#FDEFEF"/>
</svg>
