<svg width="607" height="500" viewBox="0 0 607 500" fill="none" xmlns="http://www.w3.org/2000/svg">
<path d="M385.695 8.62937C213.626 -13.6821 138.713 8.75742 64.2284 132.156C-25.4965 303.535 82.3194 443.182 261.762 490.302C410.438 523.221 495.71 458.684 550.758 364.343C610.111 127.084 562.48 58.3265 385.695 8.62937Z" fill="#3CD5B9" stroke="#F0DFDF"/>
<path d="M92.5954 388.384C79.1164 400.098 75.2963 420.708 75.2963 420.708C75.2963 420.708 93.3299 422.326 106.809 410.613C120.288 398.899 124.108 378.289 124.108 378.289C124.108 378.289 106.074 376.671 92.5954 388.384Z" fill="#F1F1F1"/>
<path d="M98.2103 393.884C91.7321 411.97 75.5078 421.29 75.5078 421.29C75.5078 421.29 69.7866 401.287 76.2647 383.201C82.7429 365.115 98.9672 355.795 98.9672 355.795C98.9672 355.795 104.688 375.798 98.2103 393.884Z" fill="#F1F1F1"/>
<path d="M486.013 341.6C484.581 330.354 484.203 318.959 484.885 307.617L486.013 288.846C479.796 303.269 481.201 322.252 486.013 341.6V341.6Z" fill="#CACACA"/>
<path d="M490.862 344.74C490.172 338.029 489.991 331.26 490.319 324.512L490.862 313.339C487.87 321.924 488.546 333.223 490.862 344.74Z" fill="#CACACA"/>
<path d="M512.413 358.558V364.839C512.411 365.338 512.24 365.815 511.937 366.168C511.635 366.521 511.225 366.72 510.797 366.723H508.103C508.032 366.723 507.962 366.739 507.897 366.77C507.831 366.802 507.772 366.848 507.722 366.906C507.672 366.965 507.632 367.034 507.605 367.11C507.578 367.187 507.564 367.268 507.564 367.351V418.849C507.562 419.348 507.391 419.826 507.089 420.179C506.786 420.532 506.376 420.731 505.948 420.733H473.087C472.658 420.733 472.247 420.534 471.944 420.181C471.641 419.828 471.471 419.349 471.47 418.849V367.351C471.47 367.184 471.413 367.025 471.312 366.907C471.211 366.79 471.074 366.723 470.932 366.723H467.699C467.271 366.722 466.86 366.524 466.557 366.171C466.254 365.817 466.084 365.338 466.083 364.839V358.558C466.083 358.311 466.125 358.066 466.206 357.837C466.287 357.608 466.406 357.4 466.556 357.225C466.706 357.05 466.884 356.912 467.081 356.817C467.277 356.723 467.487 356.674 467.699 356.674H510.797C511.225 356.676 511.635 356.875 511.938 357.228C512.241 357.581 512.412 358.059 512.413 358.558Z" fill="#F2F2F2"/>
<path d="M507.613 368.042H471.519V369.926H507.613V368.042Z" fill="#E6E6E6"/>
<path d="M507.564 395.766C495.487 401.593 483.277 401.657 470.932 395.766V382.492C482.816 377.839 495.68 377.839 507.564 382.492V395.766Z" fill="#E6E6E6"/>
<path d="M305.253 192.816C332.215 192.816 354.072 167.335 354.072 135.903C354.072 104.47 332.215 78.9895 305.253 78.9895C278.291 78.9895 256.434 104.47 256.434 135.903C256.434 167.335 278.291 192.816 305.253 192.816Z" fill="#FEB8B8"/>
<path d="M350.851 86.8027C343.552 72.9854 332.127 62.804 318.775 58.2183L312.781 63.317V56.6965C309.575 56.1243 306.329 55.9039 303.087 56.0381L297.916 61.4924V56.4913C290.261 57.6004 282.885 60.5467 276.255 65.1444C269.624 69.7421 263.883 75.8916 259.393 83.2049C248.163 102.077 246.268 128.332 257.313 147.355C260.344 136.493 264.024 126.301 267.056 115.44C269.439 115.818 271.855 115.832 274.24 115.48L277.929 105.446L278.959 115.056C290.393 113.895 307.351 111.345 318.189 109.009L317.135 101.637L323.441 107.763C326.761 106.872 328.733 106.063 328.57 105.445C336.631 120.596 346.497 130.272 354.557 145.422C357.619 124.059 361.142 106.297 350.851 86.8027Z" fill="#2F2E41"/>
<path d="M400.11 273.833C398.431 262.059 396.699 250.059 392.005 239.452C388.92 232.505 384.023 225.884 377.422 224.51C376.121 224.375 374.843 224.03 373.624 223.485C371.69 222.399 345.697 205.101 341.565 202.088C338.018 199.501 332.418 194.712 329.595 194.712C326.754 194.639 315.862 197.595 273.35 193.72C273.35 193.72 261.672 199.087 252.635 205.594C252.498 205.489 208.511 233.026 206.859 232.953C203.729 232.8 200.82 235.136 199.026 238.077C197.232 241.019 196.391 244.66 195.51 248.181C205.117 273.124 213.908 298.099 223.516 323.041C223.966 323.981 224.205 325.038 224.211 326.114C224.018 327.23 223.609 328.281 223.016 329.186C218.304 338.009 218.454 349.108 218.968 359.479C219.484 369.849 220.121 380.804 216.145 390.099C215.064 392.651 213.657 394.987 212.629 397.539C210.22 403.32 209.35 421.806 210.757 428.017L387.006 433.903C383.217 421.759 400.11 273.833 400.11 273.833Z" fill="#6C63FF"/>
<path d="M190.415 332.571C190.064 335.537 190.028 338.542 190.31 341.518L192.836 383.811C193.073 387.797 193.306 391.773 193.627 395.749C194.234 403.466 195.139 411.121 196.263 418.765C196.288 419.851 196.682 420.88 197.357 421.627C198.033 422.375 198.935 422.779 199.866 422.751C210.986 425.494 222.475 425.385 233.824 424.637C251.141 423.511 295.446 421.379 298.153 417.28C300.86 413.18 299.282 406.55 295.753 403.235C292.223 399.921 233.757 391.84 233.757 391.84C234.328 386.562 236.052 381.592 237.686 376.581C240.623 367.694 243.365 358.514 243.418 348.994C243.471 339.474 240.394 329.464 233.704 324.01C228.201 319.532 221.116 318.701 214.41 318.886C209.531 319.049 201.101 317.686 196.645 319.91C193.118 321.721 191.074 328.545 190.415 332.571Z" fill="#FBBEBE"/>
<path d="M205.142 257.364C204.286 258.409 203.622 259.648 203.191 261.003C196.085 279.671 191.888 299.666 190.797 320.05C190.816 321.044 190.619 322.027 190.225 322.909C189.837 323.496 189.404 324.041 188.933 324.538C188.522 325.106 188.211 325.763 188.018 326.471C187.825 327.179 187.753 327.924 187.807 328.664C187.861 329.405 188.039 330.125 188.332 330.785C188.625 331.445 189.026 332.031 189.513 332.51C189.593 332.589 189.675 332.664 189.759 332.737C191.21 329.555 194.682 328.515 197.768 328.238C212.544 326.875 226.978 334.889 241.798 334.285C240.753 330.073 239.249 326.025 238.396 321.762C234.625 302.835 244.031 282.227 238.264 263.996C237.112 260.347 235.188 256.761 232.155 255.162C230.9 254.572 229.586 254.166 228.244 253.955C224.499 253.166 217.044 249.795 213.423 251.147C212.087 251.65 211.56 253.115 210.452 254C208.769 255.253 206.537 255.714 205.142 257.364Z" fill="#6C63FF"/>
<path d="M407.355 319.91C402.899 317.686 394.469 319.049 389.59 318.886C382.884 318.701 375.799 319.532 370.296 324.01C363.606 329.464 360.529 339.474 360.582 348.994C360.634 358.514 363.377 367.694 366.313 376.581C367.948 381.592 369.672 386.562 370.243 391.84C370.243 391.84 311.776 399.921 308.247 403.235C304.718 406.55 303.14 413.18 305.847 417.28C308.554 421.379 393.013 425.494 404.133 422.751C405.064 422.779 405.967 422.374 406.642 421.627C407.318 420.88 407.712 419.851 407.737 418.765C408.861 411.121 409.766 403.466 410.372 395.749C410.693 391.773 410.927 387.797 411.164 383.811L413.69 341.518C413.972 338.542 413.936 335.537 413.585 332.571C412.926 328.545 410.882 321.721 407.355 319.91Z" fill="#FBBEBE"/>
<path d="M396.548 254C395.44 253.115 394.913 251.65 393.577 251.147C389.956 249.795 382.501 253.166 378.756 253.955C377.415 254.166 376.101 254.572 374.845 255.162C371.812 256.761 369.888 260.347 368.736 263.996C362.969 282.227 372.375 302.835 368.604 321.762C367.751 326.025 366.247 330.073 365.202 334.285C380.022 334.889 394.456 326.875 409.232 328.238C412.319 328.515 415.79 329.555 417.241 332.737C417.325 332.664 417.407 332.589 417.487 332.51C417.974 332.031 418.375 331.445 418.668 330.785C418.961 330.125 419.139 329.405 419.193 328.664C419.247 327.924 419.175 327.179 418.982 326.471C418.789 325.763 418.478 325.106 418.067 324.538C417.596 324.041 417.163 323.496 416.775 322.909C416.381 322.027 416.184 321.044 416.204 320.05C415.112 299.666 410.915 279.671 403.809 261.003C403.378 259.648 402.715 258.409 401.858 257.364C400.464 255.714 398.231 255.253 396.548 254Z" fill="#6C63FF"/>
<path d="M290.794 424.771C298.071 424.771 303.971 417.894 303.971 409.41C303.971 400.927 298.071 394.049 290.794 394.049C283.517 394.049 277.618 400.927 277.618 409.41C277.618 417.894 283.517 424.771 290.794 424.771Z" fill="#FBBEBE"/>
<path d="M319.97 424.771C327.248 424.771 333.147 417.894 333.147 409.41C333.147 400.927 327.248 394.049 319.97 394.049C312.693 394.049 306.794 400.927 306.794 409.41C306.794 417.894 312.693 424.771 319.97 424.771Z" fill="#FBBEBE"/>
<path d="M401.305 444.024H220.281C218.168 444.021 216.142 443.041 214.647 441.299C213.153 439.557 212.312 437.195 212.31 434.731V306.702C212.312 304.238 213.153 301.876 214.647 300.134C216.142 298.392 218.168 297.412 220.281 297.409H401.305C403.418 297.412 405.445 298.392 406.939 300.134C408.434 301.876 409.274 304.238 409.277 306.702V434.731C409.274 437.195 408.434 439.557 406.939 441.299C405.445 443.041 403.418 444.021 401.305 444.024Z" fill="#3F3D56"/>
<path d="M310.354 376.865C313.267 376.865 315.628 374.112 315.628 370.717C315.628 367.321 313.267 364.568 310.354 364.568C307.441 364.568 305.08 367.321 305.08 370.717C305.08 374.112 307.441 376.865 310.354 376.865Z" fill="white"/>
<path d="M607 418.2H0V439.945H35.9034V445H571.11V439.945H607V418.2Z" fill="#F1F1F1"/>
<path d="M260.36 157.115C252.516 157.115 246.157 149.1 246.157 139.212V130.26C246.157 120.373 252.516 112.357 260.36 112.357V157.115H260.36Z" fill="#6C63FF"/>
<path d="M351.016 112.357C358.86 112.357 365.219 120.373 365.219 130.26V139.212C365.219 149.1 358.86 157.115 351.016 157.115V112.357Z" fill="#6C63FF"/>
<path d="M358.459 131.667H356.205C356.205 95.6423 332.954 66.3338 304.374 66.3338C275.794 66.3338 252.542 95.6423 252.542 131.667H250.289C250.289 94.0759 274.551 63.4933 304.374 63.4933C334.196 63.4933 358.459 94.0759 358.459 131.667Z" fill="#6C63FF"/>
</svg>
